<?xml version="1.0" encoding="UTF-8" standalone="no"?>
<svg width="36px" height="35px" viewBox="0 0 36 35" version="1.1" xmlns="http://www.w3.org/2000/svg" xmlns:xlink="http://www.w3.org/1999/xlink">
    <!-- Generator: Sketch 3.7.2 (28276) - http://www.bohemiancoding.com/sketch -->
    <title>Group</title>
    <desc>Created with Sketch.</desc>
    <defs></defs>
    <g id="Symbols" stroke="none" stroke-width="1" fill="none" fill-rule="evenodd">
        <g id="number" transform="translate(1.000000, 1.000000)">
            <g id="Group">
                <path d="M17,33 C26.3888407,33 34,25.6126984 34,16.5 C34,7.38730163 26.3888407,0 17,0 C7.61115925,0 0,7.38730163 0,16.5 C0,25.6126984 7.61115925,33 17,33 Z" id="Oval-1" stroke="#50E3C2" fill="#FFFFFF"></path>
                <path d="M17.817037,10.8 L17.817037,24 L16.677037,24 L16.677037,14.08 C16.677037,13.7333316 16.6903702,13.1466708 16.717037,12.32 C16.2903682,12.8133358 15.7703734,13.2433315 15.157037,13.61 C14.5437006,13.9766685 13.9103736,14.2399992 13.257037,14.4 L12.957037,13.38 C13.55704,13.2333326 14.2670329,12.9033359 15.087037,12.39 C15.9070411,11.8766641 16.483702,11.3466694 16.817037,10.8 L17.817037,10.8 Z" id="1" fill="#4A4A4A"></path>
            </g>
        </g>
    </g>
</svg>