<?xml version="1.0" encoding="UTF-8" standalone="no"?>
<svg width="36px" height="35px" viewBox="0 0 36 35" version="1.1" xmlns="http://www.w3.org/2000/svg" xmlns:xlink="http://www.w3.org/1999/xlink">
    <!-- Generator: Sketch 3.7.2 (28276) - http://www.bohemiancoding.com/sketch -->
    <title>Group Copy 3</title>
    <desc>Created with Sketch.</desc>
    <defs></defs>
    <g id="Symbols" stroke="none" stroke-width="1" fill="none" fill-rule="evenodd">
        <g id="Group-Copy-3" transform="translate(1.000000, 1.000000)">
            <path d="M17,33 C26.3888407,33 34,25.6126984 34,16.5 C34,7.38730163 26.3888407,0 17,0 C7.61115925,0 0,7.38730163 0,16.5 C0,25.6126984 7.61115925,33 17,33 Z" id="Oval-1" stroke="#50E3C2" fill="#FFFFFF"></path>
            <path d="M22,19.3 L19.5,19.3 L19.5,23 L18.36,23 L18.36,19.3 L11.84,19.3 L11.84,18.46 L18.06,9.8 L19.5,9.8 L19.5,18.32 L22,18.32 L22,19.3 Z M13.06,18.32 L18.36,18.32 L18.36,12.56 L18.42,10.76 L18.38,10.76 C18.0866652,11.3066694 17.7000024,11.91333 17.22,12.58 L13.06,18.32 Z" id="4" fill="#4A4A4A"></path>
        </g>
    </g>
</svg>