<?xml version="1.0" encoding="UTF-8" standalone="no"?>
<svg width="36px" height="35px" viewBox="0 0 36 35" version="1.1" xmlns="http://www.w3.org/2000/svg" xmlns:xlink="http://www.w3.org/1999/xlink">
    <!-- Generator: Sketch 3.7.2 (28276) - http://www.bohemiancoding.com/sketch -->
    <title>Group Copy 5</title>
    <desc>Created with Sketch.</desc>
    <defs></defs>
    <g id="Symbols" stroke="none" stroke-width="1" fill="none" fill-rule="evenodd">
        <g id="Group-Copy-5" transform="translate(1.000000, 1.000000)">
            <path d="M17,33 C26.3888407,33 34,25.6126984 34,16.5 C34,7.38730163 26.3888407,0 17,0 C7.61115925,0 0,7.38730163 0,16.5 C0,25.6126984 7.61115925,33 17,33 Z" id="Oval-1" stroke="#50E3C2" fill="#FFFFFF"></path>
            <path d="M21.22,10.8 L21.22,11.86 C19.5933252,13.5800086 18.380004,15.4299901 17.58,17.41 C16.779996,19.3900099 16.346667,21.5866546 16.28,24 L15.1,24 C15.166667,21.6933218 15.6066626,19.5166769 16.42,17.47 C17.2333374,15.4233231 18.4199922,13.5533418 19.98,11.86 L11.68,11.86 L11.68,10.8 L21.22,10.8 Z" id="7" fill="#4A4A4A"></path>
        </g>
    </g>
</svg>