<?xml version="1.0" encoding="UTF-8" standalone="no"?>
<svg width="36px" height="35px" viewBox="0 0 36 35" version="1.1" xmlns="http://www.w3.org/2000/svg" xmlns:xlink="http://www.w3.org/1999/xlink">
    <!-- Generator: Sketch 3.7.2 (28276) - http://www.bohemiancoding.com/sketch -->
    <title>Group Copy</title>
    <desc>Created with Sketch.</desc>
    <defs></defs>
    <g id="Symbols" stroke="none" stroke-width="1" fill="none" fill-rule="evenodd">
        <g id="Group-Copy" transform="translate(1.000000, 1.000000)">
            <path d="M17,33 C26.3888407,33 34,25.6126984 34,16.5 C34,7.38730163 26.3888407,0 17,0 C7.61115925,0 0,7.38730163 0,16.5 C0,25.6126984 7.61115925,33 17,33 Z" id="Oval-1" stroke="#50E3C2" fill="#FFFFFF"></path>
            <path d="M19.85,10.26 C20.4833365,10.7000022 20.9733316,11.3599956 21.32,12.24 L20.28,12.74 C19.8266644,11.3533264 18.8400076,10.66 17.32,10.66 C16.4799958,10.66 15.7633363,10.9299973 15.17,11.47 C14.5766637,12.0100027 14.1300015,12.7399954 13.83,13.66 C13.5299985,14.5800046 13.38,15.5866612 13.38,16.68 C13.38,17.0000016 13.3999998,17.3733312 13.44,17.8 L13.52,17.8 C13.6000004,17.1733302 13.8299981,16.6333356 14.21,16.18 C14.5900019,15.7266644 15.0533306,15.3833345 15.6,15.15 C16.1466694,14.9166655 16.7133304,14.8 17.3,14.8 C18.6200066,14.8 19.6699961,15.1833295 20.45,15.95 C21.2300039,16.7166705 21.62,17.733327 21.62,19 C21.62,20.2800064 21.2233373,21.2999962 20.43,22.06 C19.6366627,22.8200038 18.5666734,23.2 17.22,23.2 C15.6333254,23.2 14.4166709,22.5933394 13.57,21.38 C12.7233291,20.1666606 12.3,18.5066772 12.3,16.4 C12.3,14.9466594 12.5199978,13.7100051 12.96,12.69 C13.4000022,11.6699949 14.0033295,10.9000026 14.77,10.38 C15.5366705,9.8599974 16.4133284,9.6 17.4,9.6 C18.400005,9.6 19.2166635,9.8199978 19.85,10.26 L19.85,10.26 Z M15.55,16.32 C15.0633309,16.6000014 14.6833347,16.973331 14.41,17.44 C14.1366653,17.906669 14,18.4199972 14,18.98 C14,19.9000046 14.2966637,20.6533304 14.89,21.24 C15.4833363,21.8266696 16.2533286,22.12 17.2,22.12 C18.200005,22.12 18.9866638,21.8400028 19.56,21.28 C20.1333362,20.7199972 20.42,19.9533382 20.42,18.98 C20.42,18.046662 20.1333362,17.3000028 19.56,16.74 C18.9866638,16.1799972 18.2066716,15.9 17.22,15.9 C16.5933302,15.9 16.0366691,16.0399986 15.55,16.32 L15.55,16.32 Z" id="6" fill="#4A4A4A"></path>
        </g>
    </g>
</svg>