<?xml version="1.0" encoding="UTF-8" standalone="no"?>
<svg width="36px" height="35px" viewBox="0 0 36 35" version="1.1" xmlns="http://www.w3.org/2000/svg" xmlns:xlink="http://www.w3.org/1999/xlink">
    <!-- Generator: Sketch 3.7.2 (28276) - http://www.bohemiancoding.com/sketch -->
    <title>Group Copy</title>
    <desc>Created with Sketch.</desc>
    <defs></defs>
    <g id="Symbols" stroke="none" stroke-width="1" fill="none" fill-rule="evenodd">
        <g id="Group-Copy" transform="translate(1.000000, 1.000000)">
            <path d="M17,33 C26.3888407,33 34,25.6126984 34,16.5 C34,7.38730163 26.3888407,0 17,0 C7.61115925,0 0,7.38730163 0,16.5 C0,25.6126984 7.61115925,33 17,33 Z" id="Oval-1" stroke="#50E3C2" fill="#FFFFFF"></path>
            <path d="M12.34,22.06 C14.1933426,20.6333262 15.619995,19.4700045 16.62,18.57 C17.620005,17.6699955 18.3666642,16.8300039 18.86,16.05 C19.3533358,15.2699961 19.6,14.4733374 19.6,13.66 C19.6,12.7399954 19.3166695,12.0100027 18.75,11.47 C18.1833305,10.9299973 17.4200048,10.66 16.46,10.66 C15.459995,10.66 14.6566697,10.9766635 14.05,11.61 C13.4433303,12.2433365 13.1000004,13.0999946 13.02,14.18 L12.02,13.6 C12.153334,12.3866606 12.6099961,11.4166703 13.39,10.69 C14.1700039,9.9633297 15.2066602,9.6 16.5,9.6 C17.8066732,9.6 18.8466628,9.9699963 19.62,10.71 C20.3933372,11.4500037 20.78,12.4333272 20.78,13.66 C20.78,14.526671 20.546669,15.3733292 20.08,16.2 C19.613331,17.0266708 18.8933382,17.8966621 17.92,18.81 C16.9466618,19.7233379 15.6400082,20.7733274 14,21.96 L14,21.98 C14.4533356,21.9533332 14.9399974,21.94 15.46,21.94 L21.18,21.94 L21.18,23 L12.34,23 L12.34,22.06 Z" id="2" fill="#4A4A4A"></path>
        </g>
    </g>
</svg>