<?xml version="1.0" encoding="UTF-8" standalone="no"?>
<svg width="36px" height="35px" viewBox="0 0 36 35" version="1.1" xmlns="http://www.w3.org/2000/svg" xmlns:xlink="http://www.w3.org/1999/xlink">
    <!-- Generator: Sketch 3.7.2 (28276) - http://www.bohemiancoding.com/sketch -->
    <title>Group Copy 4</title>
    <desc>Created with Sketch.</desc>
    <defs></defs>
    <g id="Symbols" stroke="none" stroke-width="1" fill="none" fill-rule="evenodd">
        <g id="Group-Copy-4" transform="translate(1.000000, 1.000000)">
            <path d="M17,33 C26.3888407,33 34,25.6126984 34,16.5 C34,7.38730163 26.3888407,0 17,0 C7.61115925,0 0,7.38730163 0,16.5 C0,25.6126984 7.61115925,33 17,33 Z" id="Oval-1" stroke="#50E3C2" fill="#FFFFFF"></path>
            <path d="M19.16,15.23 C19.7866698,15.5833351 20.2733316,16.0766635 20.62,16.71 C20.9666684,17.3433365 21.14,18.0733292 21.14,18.9 C21.14,20.2066732 20.7433373,21.2499961 19.95,22.03 C19.1566627,22.8100039 18.0866734,23.2 16.74,23.2 C14.339988,23.2 12.8133366,22.1733436 12.16,20.12 L13.26,19.56 C13.4733344,20.4133376 13.8533306,21.0566645 14.4,21.49 C14.9466694,21.9233355 15.7133284,22.14 16.7,22.14 C17.6866716,22.14 18.4766637,21.8566695 19.07,21.29 C19.6633363,20.7233305 19.96,19.9600048 19.96,19 C19.96,17.9866616 19.6800028,17.1933362 19.12,16.62 C18.5599972,16.0466638 17.7866716,15.76 16.8,15.76 C15.2933258,15.76 14.2000034,16.2399952 13.52,17.2 L12.52,17.2 L13.24,9.8 L20.58,9.8 L20.58,10.86 L14.2,10.86 L13.68,15.74 L13.66,16 L13.68,16 C14.4266704,15.133329 15.533326,14.7 17,14.7 C17.8133374,14.7 18.5333302,14.8766649 19.16,15.23 L19.16,15.23 Z" id="5" fill="#4A4A4A"></path>
        </g>
    </g>
</svg>