<?xml version="1.0" encoding="UTF-8" standalone="no"?>
<svg width="40px" height="40px" viewBox="0 0 40 40" version="1.1" xmlns="http://www.w3.org/2000/svg" xmlns:xlink="http://www.w3.org/1999/xlink">
    <!-- Generator: Sketch 3.7.2 (28276) - http://www.bohemiancoding.com/sketch -->
    <title>Group</title>
    <desc>Created with Sketch.</desc>
    <defs></defs>
    <g id="Page-1" stroke="none" stroke-width="1" fill="none" fill-rule="evenodd" stroke-linecap="round" stroke-linejoin="round">
        <g id="Desktop-Copy-14" transform="translate(-183.000000, -590.000000)" stroke="#000000">
            <g id="Group" transform="translate(183.000000, 590.000000)">
                <path d="M0.833333333,39.1666667 L0.833333333,30 C0.833333333,28.62 1.95166667,27.5 3.33333333,27.5 L36.6666667,27.5 C38.0483333,27.5 39.1666667,28.62 39.1666667,30 L39.1666667,39.1666667 L0.833333333,39.1666667 L0.833333333,39.1666667 Z" id="Stroke-436"></path>
                <path d="M37.5,20.8333333 C37.5,22.675 36.1383333,24.1666667 34.4566667,24.1666667 L5.54333333,24.1666667 C3.86166667,24.1666667 2.5,22.675 2.5,20.8333333 L2.5,4.16666667 C2.5,2.325 3.86166667,0.833333333 5.54333333,0.833333333 L34.4566667,0.833333333 C36.1383333,0.833333333 37.5,2.325 37.5,4.16666667 L37.5,20.8333333 L37.5,20.8333333 Z" id="Stroke-437"></path>
                <polygon id="Stroke-438" points="34.1666667 20.8333333 5.83333333 20.8333333 5.83333333 4.16666667 34.1666667 4.16666667"></polygon>
                <path d="M4.16666667,30.8333333 L14.1666667,30.8333333" id="Stroke-439"></path>
                <path d="M4.16666667,34.1666667 L9.16666667,34.1666667" id="Stroke-440"></path>
                <polygon id="Stroke-441" points="35.8333333 34.1666667 20.8333333 34.1666667 20.8333333 30.8333333 35.8333333 30.8333333"></polygon>
            </g>
        </g>
    </g>
</svg>