<?xml version="1.0" encoding="UTF-8" standalone="no"?>
<svg width="36px" height="35px" viewBox="0 0 36 35" version="1.1" xmlns="http://www.w3.org/2000/svg" xmlns:xlink="http://www.w3.org/1999/xlink">
    <!-- Generator: Sketch 3.7.2 (28276) - http://www.bohemiancoding.com/sketch -->
    <title>Group Copy 2</title>
    <desc>Created with Sketch.</desc>
    <defs></defs>
    <g id="Symbols" stroke="none" stroke-width="1" fill="none" fill-rule="evenodd">
        <g id="Group-Copy-2" transform="translate(1.000000, 1.000000)">
            <path d="M17,33 C26.3888407,33 34,25.6126984 34,16.5 C34,7.38730163 26.3888407,0 17,0 C7.61115925,0 0,7.38730163 0,16.5 C0,25.6126984 7.61115925,33 17,33 Z" id="Oval-1" stroke="#50E3C2" fill="#FFFFFF"></path>
            <path d="M18.72,10.05 C19.320003,10.3500015 19.7766651,10.7599974 20.09,11.28 C20.4033349,11.8000026 20.56,12.3866634 20.56,13.04 C20.56,13.9333378 20.3233357,14.6899969 19.85,15.31 C19.3766643,15.9300031 18.7800036,16.2666664 18.06,16.32 L18.06,16.34 C18.9000042,16.3666668 19.5799974,16.679997 20.1,17.28 C20.6200026,17.880003 20.88,18.6266622 20.88,19.52 C20.88,20.2266702 20.6933352,20.8599972 20.32,21.42 C19.9466648,21.9800028 19.4233367,22.4166651 18.75,22.73 C18.0766633,23.0433349 17.3133376,23.2 16.46,23.2 C15.326661,23.2 14.3833371,22.933336 13.63,22.4 C12.8766629,21.866664 12.3266684,21.100005 11.98,20.1 L13.02,19.52 C13.2600012,20.3600042 13.6566639,21.0066644 14.21,21.46 C14.7633361,21.9133356 15.539995,22.14 16.54,22.14 C17.5000048,22.14 18.2666638,21.8900025 18.84,21.39 C19.4133362,20.8899975 19.7,20.2333374 19.7,19.42 C19.7,17.7266582 18.6466772,16.88 16.54,16.88 L15.84,16.88 L15.84,15.82 L16.54,15.82 C17.4600046,15.82 18.1633309,15.5900023 18.65,15.13 C19.1366691,14.6699977 19.38,14.040004 19.38,13.24 C19.38,12.4133292 19.1366691,11.7766689 18.65,11.33 C18.1633309,10.8833311 17.4733378,10.66 16.58,10.66 C15.779996,10.66 15.1200026,10.8566647 14.6,11.25 C14.0799974,11.6433353 13.720001,12.1866632 13.52,12.88 L12.44,12.38 C12.7466682,11.5266624 13.2699963,10.8500025 14.01,10.35 C14.7500037,9.8499975 15.5999952,9.6 16.56,9.6 C17.4000042,9.6 18.119997,9.7499985 18.72,10.05 L18.72,10.05 Z" id="3" fill="#4A4A4A"></path>
        </g>
    </g>
</svg>