<?xml version="1.0" encoding="UTF-8" standalone="no"?>
<svg width="40px" height="37px" viewBox="0 0 40 37" version="1.1" xmlns="http://www.w3.org/2000/svg" xmlns:xlink="http://www.w3.org/1999/xlink">
    <!-- Generator: Sketch 3.7.2 (28276) - http://www.bohemiancoding.com/sketch -->
    <title>Stroke 103 + Stroke 104</title>
    <desc>Created with Sketch.</desc>
    <defs></defs>
    <g id="Page-1" stroke="none" stroke-width="1" fill="none" fill-rule="evenodd" stroke-linejoin="round">
        <g id="Desktop-Copy-14" transform="translate(-801.000000, -593.000000)" stroke="#000000">
            <g id="Stroke-103-+-Stroke-104" transform="translate(801.000000, 593.000000)">
                <path d="M39.1666667,16.4713333 C39.1666667,25.108 30.5866667,32.1096667 20,32.1096667 C17.6366667,32.1096667 15.375,31.7613333 13.285,31.123 L2.27,36.2496667 L6.58333333,27.6396667 C3.03333333,24.8013333 0.833333333,20.8463333 0.833333333,16.4713333 C0.833333333,7.833 9.41333333,0.833 20,0.833 C30.5866667,0.833 39.1666667,7.833 39.1666667,16.4713333 L39.1666667,16.4713333 Z" id="Stroke-103"></path>
                <path d="M20.8333333,25.8333333 C20.8333333,25.8333333 30,19.1666667 30,14.2266667 C30,8.53 22.5,6.72666667 20.8333333,13.6566667 C19.1666667,6.72666667 11.6666667,8.53 11.6666667,14.2266667 C11.6666667,19.1666667 20.8333333,25.8333333 20.8333333,25.8333333 L20.8333333,25.8333333 Z" id="Stroke-104"></path>
            </g>
        </g>
    </g>
</svg>