<?xml version="1.0" encoding="UTF-8" standalone="no"?>
<svg width="40px" height="40px" viewBox="0 0 40 40" version="1.1" xmlns="http://www.w3.org/2000/svg" xmlns:xlink="http://www.w3.org/1999/xlink">
    <!-- Generator: Sketch 3.7.2 (28276) - http://www.bohemiancoding.com/sketch -->
    <title>Group</title>
    <desc>Created with Sketch.</desc>
    <defs></defs>
    <g id="Page-1" stroke="none" stroke-width="1" fill="none" fill-rule="evenodd" stroke-linecap="round" stroke-linejoin="round">
        <g id="Desktop-Copy-14" transform="translate(-492.000000, -590.000000)" stroke="#000000">
            <g id="Group" transform="translate(492.000000, 590.000000)">
                <path d="M39.1666667,20 C39.1666667,30.5866667 30.5866667,39.1666667 20,39.1666667 C9.41333333,39.1666667 0.833333333,30.5866667 0.833333333,20 C0.833333333,9.41333333 9.41333333,0.833333333 20,0.833333333 C30.5866667,0.833333333 39.1666667,9.41333333 39.1666667,20 L39.1666667,20 Z" id="Stroke-284"></path>
                <path d="M22.5,20 C22.5,21.38 21.38,22.5 20,22.5 C18.62,22.5 17.5,21.38 17.5,20 C17.5,18.62 18.62,17.5 20,17.5 C21.38,17.5 22.5,18.62 22.5,20 L22.5,20 Z" id="Stroke-285"></path>
                <path d="M21.7675,18.2325 L30.0158333,9.98416667" id="Stroke-286"></path>
                <path d="M4.07233333,20.3091667 L7.40566667,20.3091667" id="Stroke-287"></path>
                <path d="M5.37116667,26.058 L8.45116667,24.783" id="Stroke-288"></path>
                <path d="M34.6256667,26.0595 L31.5473333,24.7828333" id="Stroke-289"></path>
                <path d="M35.8316667,20.0016667 L32.5,20" id="Stroke-290"></path>
                <path d="M34.6273333,13.942 L31.5473333,15.217" id="Stroke-291"></path>
                <path d="M26.0595,5.37266667 L24.7828333,8.451" id="Stroke-292"></path>
                <path d="M19.9056667,4.47583333 L19.9056667,7.80916667" id="Stroke-293"></path>
                <path d="M13.942,5.37116667 L15.217,8.45116667" id="Stroke-294"></path>
                <path d="M8.80533333,8.80366667 L11.1603333,11.1603333" id="Stroke-295"></path>
                <path d="M5.37266667,13.9405 L8.451,15.2171667" id="Stroke-296"></path>
                <polygon id="Stroke-297" points="27.5 32.5 12.5 32.5 12.5 27.5 27.5 27.5"></polygon>
            </g>
        </g>
    </g>
</svg>